<svg width="36" height="35" viewBox="0 0 36 35" fill="none" xmlns="http://www.w3.org/2000/svg">
<path d="M16.199 24.711L9.757 27.141L12.268 20.731L16.199 24.711ZM35.402 5.793L33.711 4.079L15.213 22.35L16.903 24.065L26.833 14.256V32H3V3H26.833V6.249H26.876L12.922 20.031L14.615 21.744L33.113 3.473L31.422 1.76L29.834 3.327V1.5C29.834 0.671 29.162 0 28.334 0H1.5C0.672 0 0 0.671 0 1.5V33.5C0 34.329 0.672 35 1.5 35H28.333C29.161 35 29.833 34.329 29.833 33.5V11.666H29.456L35.402 5.793ZM7.168 8.332H21.668C22.223 8.332 22.668 7.884 22.668 7.332C22.668 6.78 22.223 6.332 21.668 6.332H7.168C6.615 6.332 6.168 6.78 6.168 7.332C6.168 7.884 6.616 8.332 7.168 8.332ZM7.168 13.998H15.679C16.232 13.998 16.679 13.55 16.679 12.998C16.679 12.446 16.232 11.998 15.679 11.998H7.168C6.615 11.998 6.168 12.446 6.168 12.998C6.168 13.55 6.616 13.998 7.168 13.998Z" fill="white"/>
</svg>
