<svg width="106" height="126" viewBox="0 0 106 126" fill="none" xmlns="http://www.w3.org/2000/svg">
<path d="M102.974 20.3426L54.8817 0.375141C53.677 -0.124924 52.3228 -0.12517 51.1183 0.375141L3.02566 20.3426C1.19397 21.1033 0 22.8916 0 24.8749V49.1481C0 82.5708 20.2011 112.635 51.1455 125.266C52.3341 125.751 53.6657 125.751 54.8545 125.266C85.7984 112.636 106 82.571 106 49.1481V24.8749C106 22.8916 104.806 21.1033 102.974 20.3426ZM96.1852 49.1481C96.1852 77.5608 79.5 103.717 53 115.392C27.2081 104.028 9.81481 78.3308 9.81481 49.1481V28.1511L53 10.2209L96.1852 28.1511V49.1481ZM47.5758 65.6895L68.6689 44.5968C70.5852 42.6804 73.6923 42.6802 75.6089 44.5968C77.5255 46.5134 77.5253 49.6205 75.6087 51.5368L51.0459 76.0996C49.129 78.0165 46.0219 78.0157 44.1058 76.0996L30.3911 62.3849C28.4745 60.4683 28.4745 57.3612 30.3911 55.4448C32.3077 53.5285 35.4148 53.5283 37.3311 55.4448L47.5758 65.6895Z" fill="white"/>
</svg>
