<svg width="33" height="32" viewBox="0 0 33 32" fill="none" xmlns="http://www.w3.org/2000/svg">
<path d="M31.6978 22.5933H9.79222L10.8921 20.1874L29.167 20.1518C29.785 20.1518 30.3147 19.6778 30.425 19.022L32.9559 3.80834C33.0221 3.40934 32.9228 2.99848 32.68 2.68638C32.56 2.53279 32.4103 2.40906 32.2413 2.32379C32.0724 2.23852 31.8882 2.19374 31.7015 2.19256L8.45324 2.1096L8.2546 1.10616C8.12953 0.466167 7.59246 0 6.98183 0H1.29852C0.954129 0 0.623846 0.146925 0.380327 0.408454C0.136808 0.669983 0 1.02469 0 1.39455C0 1.76441 0.136808 2.11912 0.380327 2.38064C0.623846 2.64217 0.954129 2.7891 1.29852 2.7891H5.92977L6.7979 7.22163L8.93512 18.3346L6.18359 23.1582C6.0407 23.3653 5.95464 23.6113 5.93513 23.8682C5.91563 24.1251 5.96347 24.3828 6.07324 24.612C6.29395 25.0821 6.73905 25.3784 7.23197 25.3784H9.54208C9.04959 26.0809 8.78358 26.9366 8.78431 27.8159C8.78431 30.0519 10.4764 31.8692 12.5585 31.8692C14.6405 31.8692 16.3326 30.0519 16.3326 27.8159C16.3326 26.935 16.0604 26.0777 15.5749 25.3784H21.5009C21.0085 26.0809 20.7425 26.9366 20.7432 27.8159C20.7432 30.0519 22.4353 31.8692 24.5173 31.8692C26.5994 31.8692 28.2915 30.0519 28.2915 27.8159C28.2915 26.935 28.0193 26.0777 27.5337 25.3784H31.7015C32.4151 25.3784 33 24.7542 33 23.9839C32.9979 23.6144 32.8597 23.2608 32.6158 23.0003C32.3718 22.7398 32.0418 22.5935 31.6978 22.5933ZM8.99398 4.8592L30.1749 4.93426L28.1002 17.4101L11.4623 17.4417L8.99398 4.8592ZM12.5585 29.0643C11.9184 29.0643 11.3961 28.5033 11.3961 27.8159C11.3961 27.1285 11.9184 26.5676 12.5585 26.5676C13.1985 26.5676 13.7209 27.1285 13.7209 27.8159C13.7209 28.147 13.5984 28.4646 13.3804 28.6987C13.1624 28.9328 12.8668 29.0643 12.5585 29.0643ZM24.5173 29.0643C23.8773 29.0643 23.3549 28.5033 23.3549 27.8159C23.3549 27.1285 23.8773 26.5676 24.5173 26.5676C25.1574 26.5676 25.6797 27.1285 25.6797 27.8159C25.6797 28.147 25.5573 28.4646 25.3393 28.6987C25.1213 28.9328 24.8256 29.0643 24.5173 29.0643Z" />
</svg>
