<svg width="38" height="38" viewBox="0 0 38 38" fill="none" xmlns="http://www.w3.org/2000/svg">
<g clip-path="url(#clip0)">
<path d="M28.6996 22.5924C26.0584 22.5924 23.9097 24.7411 23.9097 27.3823C23.9097 30.0236 26.0584 32.1723 28.6996 32.1723C31.3413 32.1723 33.4895 30.0236 33.4895 27.3823C33.4895 24.7411 31.3408 22.5924 28.6996 22.5924ZM28.6996 29.7773C27.3788 29.7773 26.3046 28.7031 26.3046 27.3823C26.3046 26.0615 27.3788 24.9874 28.6996 24.9874C30.0204 24.9874 31.0946 26.0615 31.0946 27.3823C31.0946 28.7032 30.0204 29.7773 28.6996 29.7773Z" fill="#202020"/>
<path d="M12.3339 22.5924C9.69265 22.5924 7.54395 24.7411 7.54395 27.3823C7.54395 30.0236 9.69265 32.1723 12.3339 32.1723C14.9751 32.1723 17.1238 30.0236 17.1238 27.3823C17.1238 24.7411 14.9751 22.5924 12.3339 22.5924ZM12.3339 29.7773C11.0131 29.7773 9.93891 28.7031 9.93891 27.3823C9.93891 26.0615 11.0131 24.9874 12.3339 24.9874C13.6543 24.9874 14.7288 26.0615 14.7288 27.3823C14.7288 28.7032 13.6547 29.7773 12.3339 29.7773Z" fill="#202020"/>
<path d="M31.9252 8.88215C31.7217 8.47781 31.3077 8.22272 30.8551 8.22272H24.5483V10.6177H30.1166L33.3773 17.1032L35.5177 16.027L31.9252 8.88215Z" fill="#202020"/>
<path d="M25.1068 26.2248H16.0459V28.6198H25.1068V26.2248Z" fill="#202020"/>
<path d="M8.74171 26.2248H4.59051C3.92907 26.2248 3.39307 26.7609 3.39307 27.4223C3.39307 28.0837 3.92915 28.6197 4.59051 28.6197H8.74179C9.40323 28.6197 9.93923 28.0836 9.93923 27.4223C9.93923 26.7608 9.40315 26.2248 8.74171 26.2248Z" fill="#202020"/>
<path d="M37.7487 18.9042L35.3933 15.8706C35.167 15.5784 34.8177 15.4075 34.4477 15.4075H25.746V7.02517C25.746 6.36374 25.2099 5.82773 24.5485 5.82773H4.59051C3.92907 5.82773 3.39307 6.36381 3.39307 7.02517C3.39307 7.68654 3.92915 8.22262 4.59051 8.22262H23.351V16.605C23.351 17.2664 23.8871 17.8024 24.5485 17.8024H33.8613L35.6052 20.0489V26.2247H32.2921C31.6307 26.2247 31.0947 26.7608 31.0947 27.4221C31.0947 28.0836 31.6308 28.6196 32.2921 28.6196H36.8026C37.4641 28.6196 38.0001 28.0835 38.0002 27.4221V19.6386C38.0002 19.3728 37.9115 19.1141 37.7487 18.9042Z" fill="#202020"/>
<path d="M8.66145 20.1576H3.15301C2.49157 20.1576 1.95557 20.6937 1.95557 21.355C1.95557 22.0165 2.49165 22.5525 3.15301 22.5525H8.66138C9.32282 22.5525 9.85882 22.0164 9.85882 21.355C9.8589 20.6937 9.32282 20.1576 8.66145 20.1576Z" fill="#202020"/>
<path d="M11.416 15.4474H1.19745C0.536082 15.4474 0 15.9835 0 16.645C0 17.3064 0.536082 17.8424 1.19745 17.8424H11.416C12.0774 17.8424 12.6134 17.3063 12.6134 16.645C12.6134 15.9836 12.0774 15.4474 11.416 15.4474Z" fill="#202020"/>
<path d="M13.3715 10.7374H3.15301C2.49157 10.7374 1.95557 11.2734 1.95557 11.9348C1.95557 12.5962 2.49165 13.1323 3.15301 13.1323H13.3715C14.033 13.1323 14.569 12.5962 14.569 11.9348C14.569 11.2734 14.033 10.7374 13.3715 10.7374Z" fill="#202020"/>
</g>
<defs>
<clipPath id="clip0">
<rect width="38" height="38" fill="white"/>
</clipPath>
</defs>
</svg>
