<svg width="29" height="28" viewBox="0 0 29 28" fill="none" xmlns="http://www.w3.org/2000/svg">
<path d="M26.6994 2.70297C25.1982 0.959968 23.1384 0 20.8988 0C19.2248 0 17.6918 0.566554 16.3421 1.68379C15.6611 2.24774 15.0441 2.9377 14.5 3.743C13.9562 2.93793 13.3389 2.24774 12.6576 1.68379C11.3082 0.566554 9.77515 0 8.10116 0C5.86164 0 3.80156 0.959968 2.30036 2.70297C0.817085 4.42561 0 6.77899 0 9.3299C0 11.9554 0.913994 14.3588 2.87628 16.8936C4.6317 19.161 7.15464 21.4627 10.0763 24.128C11.0739 25.0383 12.2047 26.07 13.3789 27.169C13.6891 27.4599 14.0871 27.62 14.5 27.62C14.9126 27.62 15.3109 27.4599 15.6206 27.1695C16.7948 26.0702 17.9263 25.038 18.9244 24.1273C21.8456 21.4625 24.3685 19.161 26.1239 16.8934C28.0862 14.3588 29 11.9554 29 9.32967C29 6.77899 28.1829 4.42561 26.6994 2.70297Z" fill="#EC7357"/>
</svg>
