<svg width="20" height="20" viewBox="0 0 20 20" fill="none" xmlns="http://www.w3.org/2000/svg">
<path d="M11.9141 10C11.9141 11.0571 11.0571 11.9141 10 11.9141C8.94287 11.9141 8.08594 11.0571 8.08594 10C8.08594 8.94287 8.94287 8.08594 10 8.08594C11.0571 8.08594 11.9141 8.94287 11.9141 10Z" fill="white"/>
<path d="M14.4764 6.61392C14.3844 6.36459 14.2376 6.13892 14.0469 5.95367C13.8617 5.76294 13.6361 5.61615 13.3867 5.52414C13.1843 5.44556 12.8804 5.35202 12.3205 5.32654C11.7149 5.29892 11.5333 5.29297 10.0001 5.29297C8.46677 5.29297 8.28519 5.29877 7.67972 5.32639C7.11987 5.35202 6.81577 5.44556 6.61359 5.52414C6.36411 5.61615 6.13843 5.76294 5.95334 5.95367C5.7626 6.13892 5.61581 6.36444 5.52365 6.61392C5.44507 6.81625 5.35153 7.12036 5.32605 7.68021C5.29843 8.28568 5.29248 8.46725 5.29248 10.0006C5.29248 11.5338 5.29843 11.7154 5.32605 12.321C5.35153 12.8809 5.44507 13.1848 5.52365 13.3871C5.61581 13.6366 5.76245 13.8622 5.95319 14.0474C6.13843 14.2381 6.36395 14.3849 6.61343 14.4769C6.81577 14.5557 7.11987 14.6492 7.67972 14.6747C8.28519 14.7023 8.46661 14.7081 9.99997 14.7081C11.5335 14.7081 11.7151 14.7023 12.3204 14.6747C12.8802 14.6492 13.1843 14.5557 13.3867 14.4769C13.8875 14.2838 14.2833 13.8879 14.4764 13.3871C14.555 13.1848 14.6486 12.8809 14.6742 12.321C14.7018 11.7154 14.7076 11.5338 14.7076 10.0006C14.7076 8.46725 14.7018 8.28568 14.6742 7.68021C14.6487 7.12036 14.5552 6.81625 14.4764 6.61392ZM10.0001 12.9491C8.37155 12.9491 7.05136 11.629 7.05136 10.0005C7.05136 8.37189 8.37155 7.05185 10.0001 7.05185C11.6285 7.05185 12.9487 8.37189 12.9487 10.0005C12.9487 11.629 11.6285 12.9491 10.0001 12.9491ZM13.0653 7.62436C12.6848 7.62436 12.3762 7.31583 12.3762 6.93527C12.3762 6.55472 12.6848 6.24619 13.0653 6.24619C13.4459 6.24619 13.7544 6.55472 13.7544 6.93527C13.7542 7.31583 13.4459 7.62436 13.0653 7.62436Z" fill="white"/>
<path d="M10 0C4.478 0 0 4.478 0 10C0 15.522 4.478 20 10 20C15.522 20 20 15.522 20 10C20 4.478 15.522 0 10 0ZM15.7076 12.3674C15.6798 12.9787 15.5826 13.396 15.4407 13.7613C15.1424 14.5326 14.5326 15.1424 13.7613 15.4407C13.3961 15.5826 12.9787 15.6796 12.3676 15.7076C11.7552 15.7355 11.5596 15.7422 10.0002 15.7422C8.44055 15.7422 8.24509 15.7355 7.6326 15.7076C7.02148 15.6796 6.604 15.5826 6.23886 15.4407C5.85556 15.2965 5.50858 15.0705 5.22171 14.7783C4.92966 14.4916 4.70367 14.1444 4.55948 13.7613C4.41757 13.3961 4.32037 12.9787 4.2926 12.3676C4.26437 11.7551 4.25781 11.5594 4.25781 10C4.25781 8.44055 4.26437 8.24493 4.29245 7.6326C4.32022 7.02133 4.41727 6.604 4.55917 6.23871C4.70337 5.85556 4.9295 5.50842 5.22171 5.22171C5.50842 4.9295 5.85556 4.70352 6.23871 4.55933C6.604 4.41742 7.02133 4.32037 7.6326 4.29245C8.24493 4.26453 8.44055 4.25781 10 4.25781C11.5594 4.25781 11.7551 4.26453 12.3674 4.2926C12.9787 4.32037 13.396 4.41742 13.7613 4.55917C14.1444 4.70337 14.4916 4.9295 14.7784 5.22171C15.0705 5.50858 15.2966 5.85556 15.4407 6.23871C15.5827 6.604 15.6798 7.02133 15.7077 7.6326C15.7356 8.24493 15.7422 8.44055 15.7422 10C15.7422 11.5594 15.7356 11.7551 15.7076 12.3674Z" fill="white"/>
</svg>
