<svg width="23" height="31" viewBox="0 0 23 31" fill="none" xmlns="http://www.w3.org/2000/svg">
<path d="M22.7188 18.2727C22.3713 13.7484 20.2648 10.9132 18.4065 8.41126C16.6857 6.09503 15.1995 4.09485 15.1995 1.14429C15.1995 0.907287 15.0668 0.690666 14.8563 0.58206C14.6452 0.472802 14.3916 0.490695 14.1997 0.630171C11.4087 2.62727 9.08006 5.99324 8.26661 9.20486C7.7019 11.4408 7.62718 13.9544 7.61669 15.6146C5.03929 15.0641 4.45544 11.2088 4.44927 11.1668C4.42024 10.9668 4.29807 10.7928 4.12032 10.6977C3.94073 10.6039 3.72962 10.5971 3.54754 10.6873C3.41239 10.7527 0.230098 12.3696 0.0449402 18.8256C0.0319644 19.0404 0.0313721 19.2558 0.0313721 19.4712C0.0313721 25.7433 5.13492 30.8466 11.4075 30.8466C11.4161 30.8472 11.4254 30.8484 11.4328 30.8466C11.4353 30.8466 11.4377 30.8466 11.4408 30.8466C17.6979 30.8286 22.7836 25.7322 22.7836 19.4712C22.7836 19.1558 22.7188 18.2727 22.7188 18.2727ZM11.4075 29.5826C9.31641 29.5826 7.61545 27.7707 7.61545 25.5434C7.61545 25.4675 7.61486 25.3909 7.62037 25.2971C7.64567 24.3578 7.82407 23.7166 8.01972 23.2901C8.38636 24.0777 9.04179 24.8016 10.1065 24.8016C10.4558 24.8016 10.7385 24.5189 10.7385 24.1696C10.7385 23.2698 10.757 22.2318 10.9811 21.2949C11.1804 20.4642 11.6569 19.5804 12.2605 18.872C12.529 19.7915 13.0524 20.5358 13.5634 21.2622C14.2948 22.3014 15.0509 23.3759 15.1836 25.2083C15.1916 25.3169 15.1996 25.4261 15.1996 25.5434C15.1995 27.7706 13.4986 29.5826 11.4075 29.5826Z" fill="white"/>
</svg>
