<svg width="30" height="31" viewBox="0 0 30 31" fill="none" xmlns="http://www.w3.org/2000/svg">
<path d="M10.9598 13.891C11.6456 13.891 12.2015 13.3233 12.2015 12.6229C12.2015 11.9226 11.6456 11.3549 10.9598 11.3549C10.2741 11.3549 9.71814 11.9226 9.71814 12.6229C9.71814 13.3233 10.2741 13.891 10.9598 13.891Z" fill="white"/>
<path d="M18.8481 19.038C19.5338 19.038 20.0897 18.4703 20.0897 17.7699C20.0897 17.0696 19.5338 16.5018 18.8481 16.5018C18.1623 16.5018 17.6064 17.0696 17.6064 17.7699C17.6064 18.4703 18.1623 19.038 18.8481 19.038Z" fill="white"/>
<path d="M29.0858 16.8748L28.6354 16.247C28.1485 15.5632 28.1363 14.637 28.6171 13.9408L29.0554 13.3067C29.7249 12.337 29.4145 10.9881 28.3858 10.4224L27.7163 10.0557C26.9859 9.65786 26.5842 8.8249 26.7242 7.98573L26.852 7.22114C27.0468 6.05251 26.1886 4.97091 25.026 4.92118L24.2652 4.8901C23.4374 4.8528 22.7192 4.28092 22.4879 3.46661L22.2749 2.72067C21.9523 1.57691 20.7228 0.986374 19.6515 1.4588L18.9516 1.76339C18.1908 2.09906 17.3021 1.90014 16.7482 1.2661L16.243 0.688001C15.47 -0.194689 14.1127 -0.188472 13.3458 0.712865L12.8467 1.29718C12.2989 1.93744 11.4163 2.14879 10.6494 1.82555L9.94338 1.52718C8.86605 1.0734 7.64873 1.6888 7.33831 2.83256L7.13745 3.58471C6.91833 4.40524 6.21229 4.98956 5.38451 5.03307L4.62368 5.07658C3.46114 5.14496 2.62118 6.239 2.83421 7.40763L2.97421 8.17221C3.12637 9.00517 2.73683 9.84435 2.01252 10.2546L1.34908 10.6338C0.332613 11.2119 0.0404557 12.567 0.728244 13.5243L1.17865 14.1521C1.66558 14.8359 1.67776 15.7621 1.19691 16.4583L0.758677 17.0923C0.0891487 18.0621 0.399566 19.411 1.4282 19.9766L2.09773 20.3434C2.82813 20.7412 3.22984 21.5742 3.08985 22.4133L2.96203 23.1779C2.76726 24.3466 3.62547 25.4282 4.78802 25.4779L5.54885 25.509C6.37663 25.5463 7.09485 26.1181 7.32614 26.9325L7.53917 27.6784C7.86176 28.8222 9.09126 29.4127 10.1625 28.9403L10.8625 28.6357C11.6233 28.3 12.5119 28.4989 13.0658 29.133L13.571 29.7111C14.3501 30.5938 15.7074 30.5875 16.4682 29.6862L16.9673 29.1019C17.5151 28.4616 18.3977 28.2503 19.1646 28.5735L19.8707 28.8719C20.948 29.3257 22.1653 28.7103 22.4757 27.5665L22.6766 26.8144C22.8957 25.9938 23.6018 25.4095 24.4295 25.366L25.1904 25.3225C26.3529 25.2541 27.1929 24.1601 26.9798 22.9914L26.8398 22.2269C26.6877 21.3939 27.0772 20.5547 27.8015 20.1445L28.465 19.7653C29.4814 19.1934 29.7736 17.8383 29.0858 16.8748ZM7.95915 12.623C7.95915 10.9322 9.2982 9.56462 10.9538 9.56462C12.6093 9.56462 13.9484 10.9322 13.9484 12.623C13.9484 14.3137 12.6093 15.6813 10.9538 15.6813C9.2982 15.6813 7.95915 14.3075 7.95915 12.623ZM11.532 20.5112C11.2764 20.8282 10.8138 20.8717 10.5034 20.6107C10.1929 20.3496 10.1503 19.8772 10.406 19.5601L18.2638 9.89408C18.5194 9.57705 18.982 9.53354 19.2924 9.79462C19.6028 10.0557 19.6455 10.5281 19.3898 10.8451L11.532 20.5112ZM18.8481 20.8282C17.1925 20.8282 15.8535 19.4607 15.8535 17.7699C15.8535 16.0791 17.1925 14.7116 18.8481 14.7116C20.5037 14.7116 21.8427 16.0791 21.8427 17.7699C21.8427 19.4607 20.5037 20.8282 18.8481 20.8282Z" fill="white"/>
</svg>
