<svg width="28" height="27" viewBox="0 0 28 27" fill="none" xmlns="http://www.w3.org/2000/svg">
<path d="M27.9159 25.0593L18.8264 16.2944C20.2369 14.5361 20.9999 12.3862 20.9999 10.125C20.9999 7.41822 19.9044 4.88023 17.9234 2.96661C15.9424 1.053 13.3034 0 10.5 0C7.69647 0 5.05748 1.05637 3.07649 2.96661C1.092 4.87685 0 7.41822 0 10.125C0 12.8283 1.09549 15.3731 3.07649 17.2833C5.05748 19.1969 7.69297 20.2499 10.5 20.2499C12.8449 20.2499 15.0709 19.5142 16.8944 18.1574L25.9839 26.9189C26.0105 26.9446 26.0422 26.965 26.077 26.9789C26.1118 26.9928 26.1492 27 26.1869 27C26.2246 27 26.2619 26.9928 26.2968 26.9789C26.3316 26.965 26.3632 26.9446 26.3899 26.9189L27.9159 25.4508C27.9425 25.4251 27.9637 25.3945 27.9781 25.361C27.9926 25.3274 28 25.2914 28 25.255C28 25.2187 27.9926 25.1827 27.9781 25.1491C27.9637 25.1155 27.9425 25.085 27.9159 25.0593ZM16.0439 15.4709C14.5599 16.8986 12.5929 17.6849 10.5 17.6849C8.40696 17.6849 6.43997 16.8986 4.95598 15.4709C3.47548 14.0399 2.65999 12.1432 2.65999 10.125C2.65999 8.10672 3.47548 6.2066 4.95598 4.77898C6.43997 3.35136 8.40696 2.56499 10.5 2.56499C12.5929 2.56499 14.5634 3.34799 16.0439 4.77898C17.5244 6.20997 18.3399 8.10672 18.3399 10.125C18.3399 12.1432 17.5244 14.0433 16.0439 15.4709Z" fill="white"/>
</svg>
