<svg width="69" height="69" viewBox="0 0 69 69" fill="none" xmlns="http://www.w3.org/2000/svg">
<path d="M46.3594 12.9375H42.0469V9.70312C42.0469 7.70157 41.2518 5.78199 39.8365 4.36668C38.4211 2.95136 36.5016 2.15625 34.5 2.15625C32.4984 2.15625 30.5789 2.95136 29.1636 4.36668C27.7482 5.78199 26.9531 7.70157 26.9531 9.70312V12.9375H22.6406C22.3547 12.9375 22.0805 13.0511 21.8783 13.2533C21.6761 13.4555 21.5625 13.7297 21.5625 14.0156V37.7344C21.5651 38.5914 21.9066 39.4126 22.5127 40.0186C23.1187 40.6246 23.9399 40.9662 24.7969 40.9688H38.8125V38.8125H24.7969C24.5109 38.8125 24.2367 38.6989 24.0345 38.4967C23.8323 38.2945 23.7188 38.0203 23.7188 37.7344V36.6562H38.8125V34.5H23.7188V15.0938H26.9531V18.3281H29.1094V15.0938H39.8906V18.3281H42.0469V15.0938H45.2813V18.3281H47.4375V14.0156C47.4375 13.7297 47.3239 13.4555 47.1217 13.2533C46.9195 13.0511 46.6453 12.9375 46.3594 12.9375ZM39.8906 12.9375H29.1094V9.70312C29.1094 8.27344 29.6773 6.90232 30.6883 5.89138C31.6992 4.88044 33.0703 4.3125 34.5 4.3125C35.9297 4.3125 37.3008 4.88044 38.3117 5.89138C39.3227 6.90232 39.8906 8.27344 39.8906 9.70312V12.9375Z" fill="white"/>
<path d="M61.4531 20.4844H42.0469C41.7609 20.4844 41.4867 20.598 41.2845 20.8001C41.0823 21.0023 40.9688 21.2766 40.9688 21.5625V37.7344C40.9713 38.5914 41.3129 39.4126 41.9189 40.0186C42.5249 40.6246 43.3461 40.9662 44.2031 40.9688H59.2969C60.1539 40.9662 60.9751 40.6246 61.5811 40.0186C62.1871 39.4126 62.5287 38.5914 62.5312 37.7344V21.5625C62.5312 21.2766 62.4177 21.0023 62.2155 20.8001C62.0133 20.598 61.7391 20.4844 61.4531 20.4844ZM60.375 37.7344C60.375 38.0203 60.2614 38.2945 60.0592 38.4967C59.857 38.6989 59.5828 38.8125 59.2969 38.8125H44.2031C43.9172 38.8125 43.643 38.6989 43.4408 38.4967C43.2386 38.2945 43.125 38.0203 43.125 37.7344V36.6562H60.375V37.7344ZM60.375 34.5H43.125V22.6406H60.375V34.5Z" fill="white"/>
<path d="M51.75 32.3438C53.1792 32.342 54.5493 31.7736 55.5599 30.763C56.5704 29.7524 57.1389 28.3823 57.1406 26.9531V24.7969H54.9844V26.9531C54.9844 27.8109 54.6436 28.6336 54.037 29.2402C53.4305 29.8467 52.6078 30.1875 51.75 30.1875C50.8922 30.1875 50.0695 29.8467 49.463 29.2402C48.8564 28.6336 48.5156 27.8109 48.5156 26.9531V24.7969H46.3594V26.9531C46.3611 28.3823 46.9296 29.7524 47.9401 30.763C48.9507 31.7736 50.3208 32.342 51.75 32.3438Z" fill="white"/>
<path d="M67.2017 48.0305C66.7209 47.0266 65.8798 46.2406 64.8458 45.8287C63.8118 45.4167 62.6607 45.4091 61.6213 45.8074L51.9937 49.3113C51.7907 48.5067 51.3598 47.7777 50.7529 47.2118C50.1459 46.646 49.3885 46.2673 48.5717 46.1211L35.5663 43.8279C32.7706 43.336 29.8947 43.5877 27.227 44.5578L25.5516 45.1734C23.9772 45.7496 22.4897 46.5401 21.1313 47.5227L20.893 46.8682C20.8448 46.7351 20.7709 46.6127 20.6754 46.5081C20.5799 46.4035 20.4647 46.3187 20.3365 46.2587C20.2082 46.1986 20.0694 46.1644 19.9279 46.158C19.7864 46.1516 19.6451 46.1731 19.5119 46.2214L7.35389 50.6417C7.22072 50.6899 7.09834 50.7638 6.99374 50.8593C6.88915 50.9548 6.8044 51.07 6.74433 51.1982C6.68426 51.3265 6.65004 51.4653 6.64364 51.6068C6.63724 51.7483 6.65877 51.8896 6.70702 52.0228L1.63983 53.8664L2.37727 55.8922L7.44446 54.0486L11.8421 66.1322L13.8679 65.3947L9.10692 52.2998L19.2413 48.6127L24.7732 63.8142L22.1857 64.7576L22.9231 66.7823L26.5219 65.467C26.6552 65.4188 26.7777 65.3448 26.8824 65.2493C26.987 65.1537 27.0718 65.0384 27.1319 64.91C27.192 64.7817 27.2262 64.6427 27.2325 64.5011C27.2388 64.3595 27.2172 64.218 27.1688 64.0848L26.8 63.0714L29.2797 62.1679C30.8387 61.5982 32.5003 61.3638 34.1561 61.4801L39.2707 61.8348C41.2274 61.9755 43.1916 61.6988 45.0333 61.023L64.7414 53.8502C65.2988 53.6475 65.8085 53.332 66.2384 52.9233C66.6684 52.5147 67.0095 52.0218 67.2403 51.4754C67.4711 50.929 67.5867 50.3408 67.5799 49.7477C67.573 49.1546 67.4439 48.5693 67.2006 48.0283L67.2017 48.0305ZM65.2201 50.7074C65.1015 50.9646 64.933 51.1957 64.7245 51.3872C64.5159 51.5788 64.2714 51.727 64.005 51.8233L44.2969 58.9972C42.7383 59.5681 41.0763 59.8022 39.4206 59.6839L34.3059 59.3292C32.3497 59.1925 30.3867 59.4691 28.5444 60.141L26.0583 61.0456L21.9021 49.6261C23.2286 48.5909 24.7092 47.7701 26.2901 47.1938L27.9633 46.5847C30.2758 45.7436 32.7687 45.5253 35.1922 45.9518L48.1922 48.245C48.474 48.2909 48.7438 48.3923 48.9861 48.5434C49.2284 48.6944 49.4382 48.8921 49.6035 49.1248C49.7688 49.3576 49.8862 49.6209 49.9489 49.8994C50.0117 50.178 50.0184 50.4662 49.9689 50.7473C49.9194 51.0285 49.8145 51.297 49.6604 51.5373C49.5062 51.7776 49.3059 51.9849 49.071 52.1472C48.8361 52.3095 48.5713 52.4235 48.292 52.4827C48.0127 52.5418 47.7245 52.5449 47.444 52.4917L35.7646 50.4325L35.3895 52.5564L47.0688 54.6157C48.1037 54.7988 49.1699 54.596 50.0653 54.0456C50.9606 53.4952 51.623 52.6354 51.9268 51.6292L62.3544 47.8332C62.8823 47.6262 63.468 47.6219 63.9988 47.8209C64.5297 48.02 64.9681 48.4083 65.2298 48.9113C65.3567 49.194 65.4215 49.5006 65.4198 49.8104C65.4181 50.1203 65.35 50.4262 65.2201 50.7074Z" fill="white"/>
</svg>
