<svg width="67" height="67" viewBox="0 0 67 67" fill="none" xmlns="http://www.w3.org/2000/svg">
<g clip-path="url(#clip0)">
<path d="M6.00426 10.9923L9.76028 17.565C9.88697 17.7871 10.099 17.9478 10.347 18.0099L13.8512 18.886L25.8697 30.9045L27.1977 29.577L14.991 17.3707C14.8709 17.2502 14.7203 17.1648 14.5553 17.1235L11.1883 16.2787L7.99042 10.6795L10.7321 7.93776L16.3337 11.1387L17.1788 14.5058C17.2198 14.6711 17.3055 14.8221 17.4257 14.9422L29.6323 27.1489L30.9599 25.8209L18.9414 13.8024L18.0653 10.3001C18.0031 10.0518 17.8424 9.83933 17.6203 9.71225L11.0473 5.95662C10.6807 5.74804 10.2195 5.80984 9.92058 6.10765L6.16495 9.86367C5.86289 10.1607 5.79722 10.6227 6.00426 10.9923Z" fill="white"/>
<path d="M45.0419 24.3316L24.3849 44.9889L23.057 43.6609L43.7143 23.004L45.0419 24.3316Z" fill="white"/>
<path d="M20.7695 45.7197C20.5996 45.4369 20.2944 45.2643 19.9646 45.2643H14.3309C14.0014 45.2643 13.6959 45.4369 13.5263 45.7197L10.7093 50.4143C10.5305 50.7117 10.5305 51.0837 10.7093 51.3815L13.5263 56.0762C13.6959 56.3585 14.0014 56.5316 14.3309 56.5316H19.9646C20.2944 56.5316 20.5996 56.3585 20.7695 56.0762L23.5862 51.3815C23.765 51.0837 23.765 50.7117 23.5862 50.4143L20.7695 45.7197ZM19.4335 54.6536H14.8624L12.609 50.8979L14.8624 47.1419H19.4335L21.6869 50.8979L19.4335 54.6536Z" fill="white"/>
<path d="M50.9503 28.363C57.1517 28.3838 62.1963 23.3732 62.2172 17.1718C62.2202 16.2278 62.1044 15.2876 61.8722 14.3725C61.7471 13.8692 61.2376 13.5629 60.7343 13.6881C60.569 13.7294 60.4183 13.8148 60.2978 13.9349L54.4529 19.776L49.8154 18.2305L48.2688 13.5942L54.1138 7.74813C54.4803 7.38118 54.4799 6.78672 54.113 6.42016C53.9921 6.29926 53.8399 6.21351 53.6734 6.17257C47.6593 4.64953 41.5498 8.29006 40.0268 14.3038C39.7954 15.2161 39.6799 16.154 39.683 17.0953C39.6853 17.8346 39.7614 18.5716 39.9113 19.2955L19.3478 39.8585C18.6239 39.7091 17.887 39.633 17.148 39.6303C10.925 39.6303 5.88037 44.6749 5.88037 50.8979C5.88037 57.1206 10.925 62.1652 17.148 62.1652C23.3707 62.1652 28.4153 57.1206 28.4153 50.8979C28.413 50.1586 28.3365 49.4216 28.187 48.6978L33.11 43.7749L35.263 45.9279C35.6299 46.2945 36.224 46.2945 36.591 45.9279L37.0603 45.4582C37.472 45.0491 38.1375 45.0491 38.5493 45.4582C38.9607 45.8684 38.9614 46.5343 38.5512 46.9457C38.5508 46.9461 38.5501 46.9468 38.5493 46.9476L38.08 47.4169C37.7134 47.7835 37.7134 48.378 38.08 48.7445L49.2808 59.9454C52.2269 62.9184 57.025 62.9401 59.9981 59.994C62.9708 57.048 62.9924 52.2495 60.0464 49.2768C60.0305 49.2606 60.0143 49.2443 59.9981 49.2281L48.7972 38.0277C48.4307 37.6611 47.8362 37.6611 47.4697 38.0277L47.0003 38.497C46.5882 38.9064 45.9231 38.9064 45.5109 38.497C45.0999 38.0868 45.0988 37.4208 45.509 37.0099C45.5098 37.0091 45.5105 37.0087 45.5109 37.0079L45.9806 36.5382C46.3472 36.1717 46.3472 35.5772 45.9806 35.2106L43.8276 33.0576L48.7505 28.1347C49.4744 28.2842 50.2113 28.3607 50.9503 28.363ZM54.6395 60.2876C53.9573 60.2864 53.281 60.1632 52.6425 59.9233L59.9757 52.5898C61.0823 55.5335 59.5933 58.8167 56.6496 59.9233C56.0072 60.1648 55.3262 60.2884 54.6395 60.2876ZM44.0022 35.8839C42.9624 37.1242 43.1254 38.9728 44.3656 40.0123C45.4557 40.9258 47.0444 40.925 48.1333 40.0096L58.6705 50.5561C58.7848 50.6708 58.8918 50.7917 58.9953 50.9145L50.9673 58.9426C50.844 58.8395 50.7231 58.7325 50.6084 58.6178L40.0631 48.0716C41.1029 46.8314 40.9399 44.9827 39.6996 43.9433C38.6096 43.0294 37.0205 43.0305 35.9316 43.9456L34.4294 42.4434L42.4996 34.3852L44.0022 35.8839ZM47.7937 26.4402L26.4933 47.7364C26.2596 47.9697 26.1657 48.3084 26.2453 48.6286C27.5335 53.6875 24.4766 58.8329 19.4173 60.1207C14.3584 61.4089 9.21304 58.352 7.92486 53.2928C6.63706 48.2339 9.69394 43.0885 14.7532 41.8003C16.2836 41.4109 17.887 41.4109 19.4173 41.8003C19.7375 41.8787 20.0755 41.7848 20.3096 41.5527L41.605 20.2561C41.8383 20.0228 41.9322 19.684 41.8518 19.3642C40.5725 14.3644 43.5885 9.27426 48.5883 7.99457C49.5331 7.75315 50.5103 7.66045 51.4837 7.72109L46.5306 12.6761C46.2792 12.9271 46.1911 13.2991 46.3035 13.6363L48.1811 19.2704C48.275 19.5504 48.4952 19.7706 48.7756 19.8637L54.4096 21.7417C54.7465 21.8541 55.1184 21.7664 55.3699 21.5153L60.3229 16.5623C60.3341 16.7415 60.3399 16.9188 60.3399 17.0953C60.3662 22.2546 56.2054 26.4583 51.0461 26.485C50.2484 26.4888 49.4535 26.3907 48.681 26.193C48.3608 26.113 48.022 26.2065 47.7887 26.4398H47.7937V26.4402Z" fill="white"/>
<path d="M54.4319 53.0506L53.104 54.3785L43.7147 44.9893L45.0423 43.6613L54.4319 53.0506Z" fill="white"/>
</g>
<defs>
<clipPath id="clip0">
<rect width="56.3188" height="56.3188" fill="white" transform="translate(5.82608 5.82608)"/>
</clipPath>
</defs>
</svg>
