<svg width="24" height="24" viewBox="0 0 24 24" fill="none" xmlns="http://www.w3.org/2000/svg">
<g clip-path="url(#clip0)">
<path d="M23.79 6.97916L17.29 0.229238C17.078 0.00933132 16.753 -0.0596987 16.4701 0.0541916C16.1861 0.169181 16.0001 0.444202 16.0001 0.750167V4.00025H15.7501C10.3742 4.00025 6.00025 8.37422 6.00025 13.7501V15.2501C6.00025 15.598 6.24524 15.8881 6.58417 15.9672C6.63928 15.9811 6.69421 15.9871 6.74914 15.9871C7.03222 15.9871 7.30322 15.821 7.43414 15.5601C8.84019 12.7471 11.6671 11.0001 14.8121 11.0001H16.0001V14.25C16.0001 14.5562 16.1861 14.8312 16.4701 14.9451C16.7512 15.0601 17.078 14.9901 17.29 14.77L23.79 8.0201C24.07 7.72915 24.07 7.27121 23.79 6.97916Z" fill="white"/>
<path d="M21.0001 23.9997H3.00028C1.34631 23.9997 0.00031662 22.6538 0.00031662 20.9997V6.99997C0.00031662 5.34599 1.34631 4 3.00028 4H6.00025C6.55322 4 7.00018 4.44696 7.00018 4.99993C7.00018 5.5529 6.55322 5.99986 6.00025 5.99986H3.00028C2.44823 5.99986 2.00017 6.44791 2.00017 6.99997V20.9997C2.00017 21.5517 2.44823 21.9998 3.00028 21.9998H21.0001C21.552 21.9998 22 21.5517 22 20.9997V12.9999C22 12.4469 22.447 11.9998 22.9999 11.9998C23.5531 11.9998 24 12.4469 24 12.9999V20.9997C24 22.6538 22.654 23.9997 21.0001 23.9997Z" fill="white"/>
</g>
<defs>
<clipPath id="clip0">
<rect width="24" height="24" fill="white"/>
</clipPath>
</defs>
</svg>
