<svg width="25" height="25" viewBox="0 0 25 25" fill="none" xmlns="http://www.w3.org/2000/svg">
<path d="M10.4183 1.50909H14.5965V2.21214H16.1054V1.41068C16.1056 0.632858 15.4731 0 14.6957 0H10.3191C9.54166 0 8.90918 0.632858 8.90918 1.41068V2.21214H10.4183V1.50909Z" fill="#CECDCD"/>
<path d="M19.5904 8.19141H5.42488C5.03674 8.19141 4.73118 8.52252 4.76246 8.90952L5.94673 23.5534C6.01272 24.3709 6.6946 25.0005 7.51381 25.0005H17.5013C18.3205 25.0005 19.0023 24.3709 19.0683 23.5532L20.2526 8.90952C20.2841 8.52252 19.9785 8.19141 19.5904 8.19141ZM8.85486 23.4386C8.83903 23.4395 8.8232 23.4401 8.80756 23.4401C8.41198 23.4401 8.07991 23.132 8.0553 22.7319L7.31315 10.7101C7.2876 10.2941 7.60402 9.93606 8.01983 9.9105C8.43429 9.88532 8.79383 10.201 8.81939 10.6172L9.56134 22.639C9.58709 23.055 9.27067 23.4128 8.85486 23.4386ZM13.2706 22.6855C13.2706 23.1021 12.9328 23.4399 12.516 23.4399C12.0993 23.4399 11.7615 23.1021 11.7615 22.6855V10.6635C11.7615 10.2468 12.0993 9.90897 12.516 9.90897C12.9326 9.90897 13.2706 10.2468 13.2706 10.6635V22.6855ZM17.7021 10.708L16.9935 22.7298C16.9701 23.1307 16.6374 23.4399 16.2411 23.4399C16.2262 23.4399 16.2111 23.4395 16.1961 23.4388C15.7801 23.4141 15.4627 23.0571 15.4873 22.6411L16.1957 10.6191C16.2201 10.2031 16.576 9.8857 16.9931 9.91031C17.4091 9.93472 17.7265 10.292 17.7021 10.708Z" fill="#CECDCD"/>
<path d="M22.1996 5.86287L21.7041 4.37743C21.5734 3.98585 21.2068 3.72168 20.7939 3.72168H4.22113C3.80838 3.72168 3.44159 3.98585 3.31113 4.37743L2.8156 5.86287C2.72004 6.14935 2.8444 6.44156 3.07653 6.58728C3.17113 6.6466 3.28309 6.68227 3.40612 6.68227H21.6091C21.7321 6.68227 21.8443 6.6466 21.9387 6.58709C22.1708 6.44137 22.2952 6.14916 22.1996 5.86287Z" fill="#CECDCD"/>
</svg>
